<?xml version="1.0" encoding="utf-8" ?><svg xmlns="http://www.w3.org/2000/svg" xmlns:xlink="http://www.w3.org/1999/xlink" width="1536" height="1024" viewBox="0 0 1536 1024"><path fill="#830000" d="M282.301 182.459C295.793 181.245 308.552 188.48 321.129 193.52L384.107 218.936L458.561 249.051C471.848 254.423 485.886 259.771 498.822 265.916C501.337 267.111 503.198 270.171 504.739 272.522C505.165 281.82 504.831 294.711 504.842 304.263L1329.7 304.131C1336.73 304.129 1346.36 303.627 1352.93 306.303C1362.2 310.083 1438.51 371.017 1448.36 380.953C1458.22 390.896 1463.15 406.467 1466.8 419.768C1475.96 453.205 1474.79 491.295 1458.79 522.483C1454.16 531.493 1438.42 547.958 1439.41 557.438C1440.23 565.347 1445.53 574.039 1448.92 581.154C1455.17 594.342 1461.26 607.604 1467.19 620.938C1469.26 625.539 1476.58 641.272 1477.03 645.025C1478.59 657.927 1477.82 676.188 1477.72 689.45C1449.21 690.313 1416.28 689.592 1387.46 689.605L1211.62 689.624L735.07 689.62L575.842 689.668C533.823 689.646 495.17 690.044 453.148 687.93C441.256 694.054 426.519 703.128 414.681 709.936L339.683 753.01C326.161 760.765 312.153 769.265 298.255 776.101C288.834 780.736 270.957 767.841 262.462 762.952L215.419 735.825L132.99 687.953C116.305 678.373 99.0594 668.811 82.7145 658.651C78.932 656.3 76.698 653.838 74.646 649.856C72.0774 644.822 70.5782 639.312 70.2427 633.67C69.266 616.048 69.949 591.901 69.9425 573.837L69.95 462.214L70.0207 340.743C70.0392 327.204 68.9218 279.051 72.0136 269.387C80.4849 261.499 257.612 193.201 282.301 182.459Z"/><path fill="#B10604" d="M288.179 376.714C301.998 372.989 318.114 364.554 331.52 358.812L434.988 313.891C447.414 308.401 473.7 295.472 485.155 291.847C482.68 335.567 485.993 638.428 480.713 649.208C475.712 653.376 462.342 660.214 456.086 663.637L411.892 687.932L335.351 730.792C322.937 737.747 310.397 745.181 297.777 751.734C294.182 753.6 291.981 754.03 287.998 753.823C282.109 751.781 269.153 743.797 263.305 740.395L218.604 714.243C180.039 691.579 141.284 669.092 102.436 646.918C99.3937 645.181 95.198 642.383 92.5963 640.052C91.7829 639.324 91.1418 634.905 91.1375 633.382C91.1088 623.116 91.3562 612.793 91.3173 602.521C91.0416 580.935 90.9165 559.347 90.9418 537.76C91.1346 476.771 90.9035 415.782 90.2486 354.796L90.2081 315.076C90.2235 309.363 91.2341 298.379 88.5295 293.773L88.1455 293.132C90.7787 292.875 99.1878 297.069 102.124 298.389C155.541 322.404 210.482 342.926 264.257 366.134C272.243 369.581 280.431 372.756 288.179 376.714Z"/><path fill="#D21F20" d="M287.998 753.823C282.109 751.781 269.153 743.797 263.305 740.395L218.604 714.243C180.039 691.579 141.284 669.092 102.436 646.918C99.3937 645.181 95.198 642.383 92.5963 640.052C91.7829 639.324 91.1418 634.905 91.1375 633.382C91.1088 623.116 91.3562 612.793 91.3173 602.521C91.0416 580.935 90.9165 559.347 90.9418 537.76C91.1346 476.771 90.9035 415.782 90.2486 354.796L90.2081 315.076C90.2235 309.363 91.2341 298.379 88.5295 293.773L88.1455 293.132C90.7787 292.875 99.1878 297.069 102.124 298.389C155.541 322.404 210.482 342.926 264.257 366.134C272.243 369.581 280.431 372.756 288.179 376.714C287.201 412.253 288.054 452.739 288.288 488.469L288.875 656.685L288.951 724.538C288.959 728.753 289.942 751.828 287.998 753.823Z"/><path fill="#830000" d="M121.037 362.27C122.152 362.294 123.322 362.276 124.413 362.542C130.735 364.088 137.459 367.781 143.593 370.247C152.961 374.015 163.071 377.196 172.087 381.629C174.464 382.798 177.588 384.433 179.282 386.526C186.78 395.785 174.7 558.043 185.885 576.42C188.765 581.152 193.594 585.24 199.085 586.464C200.472 586.773 202.578 586.869 203.796 585.99C205.737 584.589 206.331 583.077 206.654 580.742C208.031 570.76 206.23 556.565 206.021 546.122C205.427 516.331 205.748 486.517 205.363 456.721C205.176 442.205 202.8 422.832 205.211 408.771C205.777 405.471 207.06 403.146 209.76 401.18C216.073 399.992 258.749 419.78 266.16 423.991C267.331 426.038 269.146 429.24 269.333 431.553C270.709 448.51 270.081 467.202 270.462 484.164C270.2 510.099 270.717 536.975 270.982 563.624C272.29 605.975 277.726 671.647 214.579 664.821C187.622 661.907 150.909 635.962 134.369 615.039C111.777 586.463 114.035 550.013 114.015 515.81L114.092 436.117L113.879 397.611C113.795 386.267 111.286 369.673 121.037 362.27Z"/><path fill="#FEFBF1" d="M126.644 376.955C134.234 377.314 162.22 388.64 168.202 394.782C169.614 396.232 168.941 415.512 168.953 419.411L168.882 514.273C168.874 530.641 168.406 546.455 169.768 562.859C170.659 580.213 185.488 594.965 202.284 597.541C210.324 598.774 217.982 589.015 217.832 581.355C217.583 568.663 216.713 556.222 216.64 543.522C216.555 517.579 216.6 491.637 216.776 465.695C216.767 450.021 216.155 430.224 217.003 414.852C225.161 416.5 231.946 420.387 239.709 423.219C246.356 425.644 259.196 429.621 259.276 438.515C259.376 449.656 259.253 460.659 259.553 471.855C260.02 515.181 261.003 559.064 260.625 602.368C259.931 681.988 184.808 653.321 149.994 616.162C139.927 605.465 132.924 592.255 129.722 577.918C124.913 557.077 126.254 507.146 126.397 483.117C126.598 449.153 125.586 410.647 126.644 376.955Z"/><path fill="#FEFBF1" d="M437.405 377.969C438.681 377.867 438.888 377.979 440.187 378.148C440.484 378.71 440.781 379.273 441.079 379.835C440.045 388.344 442.33 423.655 440.979 429.572C435.454 436.401 379.887 459.588 368.199 464.648C368.399 480.521 368.221 496.77 368.224 512.674C389.772 503.935 412.009 493.718 433.402 485.584C434.604 500.39 433.758 515.923 434.514 530.834C434.824 536.959 428.277 538.857 423.16 541.366C405.216 550.163 386.835 558.356 368.577 566.506C369.381 585.606 368.143 606.465 368.069 625.802C368.195 636.24 368.13 646.679 367.875 657.115C361.623 661.733 334.234 673.913 325.92 676.492C323.819 677.143 322.844 676.724 321.306 675.632C319.953 671.623 318.961 440.894 321.192 425.647C322.701 424.024 425.688 383.233 437.405 377.969Z"/><path fill="#FEFBF1" d="M1343.92 655.347C1335.49 656.35 1278.21 656.911 1273.31 654.54C1270.63 646.045 1272.04 609.352 1272.05 597.872L1272.14 498.813L1272.22 425.703C1272.23 414.14 1271.33 401.9 1272.3 390.425C1272.43 388.959 1272.81 387.814 1273.89 386.775C1277.78 383.004 1350.49 385.082 1361.5 384.755C1387.89 385.637 1413.77 389.64 1433.28 409.836C1434.06 410.639 1438.4 415.559 1438.87 415.898C1442.24 421.425 1446.46 427.863 1448.45 433.968C1462.47 473.787 1449.62 520.914 1412.63 543.522C1426.98 578.851 1443.72 613.696 1458.36 648.937C1459.13 650.784 1458.71 652.034 1457.89 653.724C1456.18 655.141 1456.1 655.631 1453.86 655.802C1446.63 656.355 1438.59 656.096 1431.33 656.071C1416.66 655.953 1402 655.988 1387.34 656.176C1383.56 647.909 1379.59 636.191 1376.38 627.447L1358.21 577.964C1356.35 572.897 1352.11 558.813 1348.59 556.068C1346.22 555.826 1347.19 555.494 1345.49 556.793C1342.83 563.423 1344.55 641.407 1343.92 655.347Z"/><path fill="#830000" d="M1344.49 440.49C1354.01 440.905 1360.62 441.145 1369.88 443.265C1386.19 450.837 1385.68 484.475 1372.78 495.939C1363.06 500.419 1354.97 501.774 1344.53 502.014L1344.49 440.49Z"/><path fill="#A30202" d="M1369.88 443.265C1386.19 450.837 1385.68 484.475 1372.78 495.939C1372.42 491.272 1373.9 488.443 1374.65 483.989C1377.23 468.592 1378.23 456.871 1369.88 443.265Z"/><path fill="#FEFBF1" d="M866.896 320.345C918.088 319.191 973.121 320.207 1024.59 320.396C1040.65 334.779 1070.74 363.301 1082.56 380.599C1081.15 382.213 1080.82 382.603 1080.41 384.705C1083.05 392.433 1080.99 410.067 1081.41 418.911C1081.66 424.105 1082.43 442.635 1080.11 445.864C1073.91 448.253 1036.63 447.175 1027.91 447.175C1026.58 472.551 1029.55 647.949 1027.02 653.681C1026.83 654.114 1026.36 654.35 1026.02 654.685C1017.55 657.495 971.117 655.149 959.283 656.079C957.404 656.227 953.594 655.317 951.666 654.59C949.578 652.437 949.953 647.073 949.957 643.946C949.985 623.98 949.992 604.011 949.993 584.045L949.897 447.629C938.995 446.387 894.582 448.904 889.666 444.928C886.713 436.038 891.003 406.53 889.542 395.324C888.973 390.962 890.553 387.212 893.894 384.3L894.688 384.212C897.155 383.953 915.048 383.83 915.67 383.355L917.018 383.581L916.322 383.47C908.592 382.295 893.763 383.404 886.748 380.882C895.894 379.953 904.064 380.408 913.079 380.152C900.151 361.294 881.28 338.596 866.896 320.345Z"/><path fill="#B10604" d="M866.896 320.345C918.088 319.191 973.121 320.207 1024.59 320.396C1040.65 334.779 1070.74 363.301 1082.56 380.599C1081.15 382.213 1080.82 382.603 1080.41 384.705C1069.29 384.023 1052.57 384.586 1040.77 384.59L945.15 384.631C930.317 384.638 908.289 385.278 893.894 384.3L894.688 384.212C897.155 383.953 915.048 383.83 915.67 383.355L917.018 383.581L916.322 383.47C908.592 382.295 893.763 383.404 886.748 380.882C895.894 379.953 904.064 380.408 913.079 380.152C900.151 361.294 881.28 338.596 866.896 320.345Z"/><path fill="#FEFBF1" d="M507.527 320.153C519.604 320.173 631.811 319.316 633.775 321.405C637.24 325.089 646.129 373.676 646.196 381.218C644.576 382.931 642.828 382.818 640.137 383.446C641.657 383.778 643.175 384.121 644.69 384.473L646.626 385.153C649.389 392.374 646.61 434.058 646.663 444.342C646.669 445.695 641.949 446.605 640.704 446.65C621.37 447.351 601.336 447.431 582.053 447.138C582.055 457.31 581.832 468.42 582.165 478.518C582.301 478.589 582.435 478.666 582.574 478.731C590.829 482.635 635.072 476.424 637.544 482.648C638.055 483.935 636.008 506.847 635.485 509.036C635.447 513.949 635.749 519.601 635.623 524.244C635.426 531.448 637.515 541.912 633.144 547.771C630.632 551.137 617.427 548.824 613.489 549.103C603.173 549.06 592.531 549.002 582.066 549.079C582.606 563.97 585.02 644.915 581.794 654.503C577.051 656.614 516.035 656.657 508.924 655.38C505.925 655.444 506.434 655.922 504.664 654.454C503.764 650.288 504.179 631.913 504.18 626.587L504.295 560.346L504.346 436.044C504.395 419.604 503.948 402.493 504.251 385.989C504.285 384.085 505.694 383.381 507.076 382.225C508.09 363.524 507.496 339.244 507.527 320.153Z"/><path fill="#B10604" d="M507.527 320.153C519.604 320.173 631.811 319.316 633.775 321.405C637.24 325.089 646.129 373.676 646.196 381.218C644.576 382.931 642.828 382.818 640.137 383.446C641.657 383.778 643.175 384.121 644.69 384.473C625.397 384.371 606.103 384.424 586.81 384.631L587.995 383.956L587.747 383.348C583.506 382.329 572.833 383.048 567.8 382.862C549.553 382.185 524.713 384.298 507.076 382.225C508.09 363.524 507.496 339.244 507.527 320.153Z"/><path fill="#A30202" d="M507.076 382.225C524.713 384.298 549.553 382.185 567.8 382.862C572.833 383.048 583.506 382.329 587.747 383.348L587.995 383.956L586.81 384.631C576.009 384.948 512.182 383.383 508.566 386.992C506.948 399.283 507.491 413.975 507.49 426.526L507.502 485.791L507.505 591.381C507.502 600.665 506.447 649.025 508.924 655.38C505.925 655.444 506.434 655.922 504.664 654.454C503.764 650.288 504.179 631.913 504.18 626.587L504.295 560.346L504.346 436.044C504.395 419.604 503.948 402.493 504.251 385.989C504.285 384.085 505.694 383.381 507.076 382.225Z"/><path fill="#B10604" d="M582.165 478.518C582.301 478.589 582.435 478.666 582.574 478.731C590.829 482.635 635.072 476.424 637.544 482.648C638.055 483.935 636.008 506.847 635.485 509.036C635.468 503.92 635.824 495.593 634.482 490.95L633.66 489.052L631.858 488.34C626.87 487.12 589.752 487.704 582.209 487.737C582.399 485.585 582.204 480.886 582.165 478.518Z"/><path fill="#A30202" d="M582.209 487.737C589.752 487.704 626.87 487.12 631.858 488.34L633.66 489.052L634.482 490.95C623.285 490.915 611.883 490.745 600.713 491.247C596.478 491.745 587.919 493.159 583.988 491.44C582.487 490.784 582.619 489.493 582.209 487.737Z"/><path fill="#D21F20" d="M631.858 488.34L633.66 489.052L634.482 490.95C623.285 490.915 611.883 490.745 600.713 491.247C598.978 490.009 599.049 490.978 597.698 489.17C599.38 488.252 627.575 488.402 631.858 488.34Z"/><path fill="#FEFBF1" d="M1100.29 384.778C1113.62 384.016 1127.96 384.743 1141.41 384.496C1177.77 383.829 1216.23 385.558 1252.36 384.217C1252.81 393.545 1253.28 437.875 1251.63 445.087C1247.21 450.473 1181.84 444.463 1175.73 447.666L1175.65 449.719C1176.53 459.335 1175.75 469.956 1176.06 479.662C1191.12 480.307 1211.07 480.073 1226.36 479.753C1229.64 482.329 1233.06 484.937 1236.25 487.616L1237.94 488.795L1240.59 492.159C1242.3 500.01 1241.56 536.993 1239.73 546.896C1239.15 550.046 1220.43 549.156 1215.96 549.149L1176.02 549.074L1175.97 571.624C1193.08 571.62 1211.29 571.281 1228.3 571.632C1235.25 575.705 1243.05 582.865 1249.72 587.966C1251.57 589.983 1251.02 589.859 1251.22 593.048C1251.51 593.855 1251.67 594.59 1251.76 595.443C1252.47 602.563 1253.36 650.883 1250.1 654.244C1248.68 655.709 1243.33 655.796 1241.31 655.895C1225.73 656.658 1209.83 656.039 1194.22 656.023L1110.64 656.149C1106.41 656.157 1103.42 656.489 1100.5 653.558C1099.72 646.661 1100.18 631.511 1100.19 624.023L1100.2 567.267L1100.29 384.778Z"/><path fill="#B10604" d="M1175.97 571.624C1193.08 571.62 1211.29 571.281 1228.3 571.632C1235.25 575.705 1243.05 582.865 1249.72 587.966C1226.68 587.069 1200.09 588.435 1176.34 587.903C1176.32 584.44 1176.08 581.061 1175.87 577.606L1175.97 571.624Z"/><path fill="#B10604" d="M1175.65 449.719C1176.53 459.335 1175.75 469.956 1176.06 479.662C1191.12 480.307 1211.07 480.073 1226.36 479.753C1229.64 482.329 1233.06 484.937 1236.25 487.616L1237.94 488.795C1225.55 490.175 1205.7 488.484 1192.67 489.125C1187.42 489.383 1182.34 488.727 1176.87 489.573C1176.33 490.441 1176.24 490.37 1176.02 491.317C1174.82 487.722 1175.58 456.066 1175.65 449.719Z"/><path fill="#D21F20" d="M1175.65 449.719C1176.53 459.335 1175.75 469.956 1176.06 479.662L1176.3 487.741L1236.25 487.616L1237.94 488.795C1225.55 490.175 1205.7 488.484 1192.67 489.125C1187.42 489.383 1182.34 488.727 1176.87 489.573C1176.33 490.441 1176.24 490.37 1176.02 491.317C1174.82 487.722 1175.58 456.066 1175.65 449.719Z"/><path fill="#B10604" d="M1175.87 577.606C1176.08 581.061 1176.32 584.44 1176.34 587.903C1200.09 588.435 1226.68 587.069 1249.72 587.966C1251.57 589.983 1251.02 589.859 1251.22 593.048C1227.65 592.198 1199.23 592.956 1175.28 592.957C1175.34 587.567 1175.4 582.999 1175.87 577.606Z"/><path fill="#B10604" d="M1237.94 488.795L1240.59 492.159C1230.22 491.776 1182.11 493.37 1176.02 491.317C1176.24 490.37 1176.33 490.441 1176.87 489.573C1182.34 488.727 1187.42 489.383 1192.67 489.125C1205.7 488.484 1225.55 490.175 1237.94 488.795Z"/><path fill="#B10604" d="M285.928 200.203C292.596 199.987 464.697 270.344 481.815 277.983L360.667 331.379C340.682 340.198 309.116 355.205 289.009 361.203C283.841 360.261 245.063 343.24 237.978 340.235L93.1653 278.385C114.791 271.381 148.022 256.331 170.11 247.524L240.185 219.332C254.812 213.414 271.749 206.928 285.928 200.203Z"/><path fill="#FEFBF1" d="M775.818 384.381C791.672 384.932 808.119 384.469 824.022 384.661C826.957 384.696 843.736 384.81 845.827 384.287C848.271 384.623 849.961 384.532 851.691 386.168C853.125 391.039 852.142 427.166 852.09 435.756L851.093 571.544C866.483 571.68 881.874 571.715 897.264 571.649C901.542 574.453 909.437 583.806 912.379 588.233L913.031 589.118L914.568 593.136L914.799 593.621C916.934 598.025 915.916 647.712 915.799 655.761C890.327 656.979 856.892 655.984 830.88 655.993C820.773 655.957 810.665 655.991 800.558 656.095C796.236 656.161 776.057 657.597 773.731 654.143C771.966 651.521 772.046 640.261 772.033 636.16C771.84 575.771 771.958 515.371 771.945 454.978L771.951 407.831C771.953 401.678 771.833 394.542 772.165 388.34C772.264 386.495 774.391 385.394 775.818 384.381Z"/><path fill="#B10604" d="M851.093 571.544C866.483 571.68 881.874 571.715 897.264 571.649C901.542 574.453 909.437 583.806 912.379 588.233L913.031 589.118C902.028 592.586 857.898 587.542 850.333 591.296L850.989 583.113L851.093 571.544Z"/><path fill="#A30202" d="M850.989 583.113L851.366 587.698C855.663 589.3 904.821 588.42 912.379 588.233L913.031 589.118C902.028 592.586 857.898 587.542 850.333 591.296L850.989 583.113Z"/><path fill="#B10604" d="M913.031 589.118L914.568 593.136C894.686 591.686 872.681 594.163 852.673 592.732C850.903 592.606 851.343 592.628 850.333 591.296C857.898 587.542 902.028 592.586 913.031 589.118Z"/><path fill="#FEFBF1" d="M672.436 384.612L742.202 384.649C749.043 384.704 748.093 387.59 748.088 393.827C748.075 412.794 747.787 431.775 747.455 450.74C746.888 496.286 746.746 541.837 747.031 587.385C747.033 599.4 748.251 647.396 745.386 655.396C741.514 657.057 676.571 657.161 672.681 655.564C670.218 653.089 669.861 650.077 669.824 646.511C669.666 631.213 669.881 615.688 669.92 600.403L669.86 514.736L669.825 432.035C669.823 418.268 669.725 404.193 669.957 390.41C670.015 387.023 670.548 386.736 672.436 384.612Z"/><path fill="#B10604" d="M1207.12 320.317C1238.1 319.878 1269.09 319.719 1300.08 319.84C1305.52 319.832 1337.75 319.01 1341.49 320.691C1354.31 326.444 1380.65 350.245 1392.87 359.485C1407.28 370.381 1418.77 380.082 1432.31 391.458C1443.23 400.929 1448.35 414.026 1450.4 428.249C1450.76 430.714 1450.04 432.346 1448.45 433.968C1446.46 427.863 1442.24 421.425 1438.87 415.898C1438.4 415.559 1434.06 410.639 1433.28 409.836C1413.77 389.64 1387.89 385.637 1361.5 384.755C1371.67 380.353 1392.71 388.562 1396.44 386.395C1391.57 384.014 1369.85 381.008 1365.28 382.701C1357.81 383.069 1273.06 383.309 1271.85 382.755C1271.76 382.132 1271.66 381.509 1271.57 380.886C1254.78 363.936 1222.04 336.416 1207.12 320.317Z"/><path fill="#A30202" d="M1365.28 382.701C1356.86 380.704 1326.43 382.66 1321.85 381.239C1323.95 379.883 1370.39 380.756 1375.39 381.117C1381.29 381.526 1387.16 382.348 1392.95 383.577C1407.51 386.692 1437.78 398.893 1442.22 417.553C1442.21 417.884 1442.2 418.214 1442.2 418.545C1440.53 416.669 1440.86 416.414 1438.87 415.898C1438.4 415.559 1434.06 410.639 1433.28 409.836C1413.77 389.64 1387.89 385.637 1361.5 384.755C1371.67 380.353 1392.71 388.562 1396.44 386.395C1391.57 384.014 1369.85 381.008 1365.28 382.701Z"/><path fill="#B10604" d="M745.448 320.288C779.892 320.274 818.602 319.359 852.701 320.301C860.093 327.821 878.011 370.311 882.712 382.191C874.959 382.002 851.374 381.086 845.175 383.466C845.392 383.74 845.61 384.014 845.827 384.287C843.736 384.81 826.957 384.696 824.022 384.661C808.119 384.469 791.672 384.932 775.818 384.381C781.584 383.376 784.212 383.256 789.923 383.131C786.754 383.038 773.252 382.877 771.135 382.117C771.237 381.828 772.178 379.276 772.156 379.217C766.87 365.143 760.574 351.562 754.082 338.008C751.246 332.081 748.368 326.174 745.448 320.288Z"/><path fill="#B10604" d="M652.183 320.257C676.748 320.248 702.463 319.863 726.934 320.335C733.839 340.998 740.937 361.596 748.227 382.126C746.081 382.299 739.74 382.435 738.511 383.467C739.974 384.017 740.694 384.258 742.202 384.649L672.436 384.612C673.965 384.198 674.45 384.03 675.909 383.413C673.249 383.158 671.555 383.034 669.044 381.944L669.2 381.003C663.263 361.779 658.295 337.78 652.183 320.257Z"/><path fill="#A30202" d="M669.2 381.003C674.142 380.173 677.64 380.217 682.64 380.947L682.431 381.339C677.549 381.808 673.922 381.903 669.044 381.944L669.2 381.003Z"/></svg>